<svg xmlns="http://www.w3.org/2000/svg" xmlns:svg="http://www.w3.org/2000/svg" id="svg2" width="512" height="512" version="1.1" viewBox="0 0 512 512"><metadata id="metadata8"/><g id="g10"><g id="g14" transform="translate(0.5778844,-0.38925693)"><path style="fill:#e9e9e7" id="path28" d="M 58.324175,510.56051 C 20.856116,498.84495 29.569138,444.04017 69,443.40974 c 7.519077,-0.12022 9.578436,-0.59629 17.844989,-4.12535 9.344988,-3.98945 9.344988,-3.98945 -10.5,-11.92534 C 56.5,419.42315 56.5,419.42315 49.600823,422.96158 14.640615,440.89183 -17.52407,393.70036 11.547577,367.13051 21.860443,357.70513 19.451367,358 86.144501,358 c 54.904579,0 58.031279,-0.0954 57.368649,-1.75 -3.51355,-8.77346 -7.34102,-32.73851 -7.49046,-46.90026 -0.0184,-1.74779 -0.95834,-2.37472 -5.02155,-3.34947 -37.578175,-9.01486 -37.57903,-64.83319 -0.001,-74.47134 4.5,-1.15418 4.5,-1.15418 4.79191,-9.4321 0.2919,-8.27792 0.2919,-8.27792 -15.05668,-7.93737 -27.281764,0.6053 -32.61449,4.82682 -52.723632,41.73735 -12.746765,23.39682 -12.746765,23.39682 -9.399725,26.33556 9.654809,8.47703 13.080647,27.71361 7.10765,39.91049 -12.656181,25.84396 -49.243289,25.85533 -61.9598384,0.0192 C -0.33116871,313.85076 -1.4571432,205.41227 2.3666082,188 12.370133,142.44681 43.885458,106.43145 86.180154,92.218817 94.702906,89.354847 94.702906,89.354847 74.921664,75.669723 55.140423,61.984599 55.140423,61.984599 51.804118,63.953067 38.911974,71.559618 22.03192,69.522988 10.595322,58.9811 -7.3067698,42.479528 -1.1437614,10.558001 21.586161,2.0536473 30.613692,-1.323985 225.07921,-0.6428863 240.2613,2.8195382 289.7595,14.108084 328.57554,42.53397 354.52542,86.497792 c 0.93954,1.591745 1.52582,1.622775 7,0.370482 11.7897,-2.697055 39.99625,-1.716105 53.47458,1.859707 50.88354,13.499439 88.85438,54.988789 95.97348,104.866719 2.40311,16.83665 0.92826,123.08969 -1.785,128.59811 -8.5373,17.33227 -30.46393,24.25487 -47.53683,15.00815 -19.35901,-10.48487 -23.67873,-37.28268 -8.63982,-53.59796 4.19004,-4.54567 4.19004,-4.54567 -8.66089,-28.23407 -19.84167,-36.57455 -25.00261,-40.61642 -52.61671,-41.20754 -15.81798,-0.3386 -15.81798,-0.3386 -15.5261,7.88867 0.29187,8.22728 0.29187,8.22728 5.76763,9.62589 37.91146,9.6833 36.90963,64.76282 -1.3532,74.39751 C 376,307.23743 376,307.23743 376,316.48772 c 0,10.22562 -1.97282,23.4708 -5.01465,33.66752 -1.09194,3.66038 -1.98535,6.90921 -1.98535,7.21963 0,0.31043 26.6625,0.69057 59.25,0.84477 66.87982,0.31646 65.25379,0.094 74.57047,10.20141 27.08347,29.38211 -9.5621,74.80364 -42.86446,53.12974 -3.54399,-2.30651 -3.54399,-2.30651 -22.68708,5.34176 -10.52869,4.20655 -19.38263,7.88781 -19.6754,8.18059 -1.8951,1.89509 17.99842,8.21577 26.25255,8.3411 44.93474,0.68229 46.99756,66.14954 2.15392,68.35884 -13.79345,0.67956 -25.02903,-5.141 -31.61412,-16.3776 -1.44305,-2.46237 -3.53189,-4.61358 -4.7342,-4.87554 C 404.3834,489.37208 259.13008,469.98459 256,470.01149 c -7.60294,0.0654 -155.46443,20.88179 -155.81593,21.93629 -4.656652,13.96997 -26.14746,23.52571 -41.859895,18.61273 z"/><path style="fill:#dededc" id="path26" d="m 57.26786,510.04474 c -36.538378,-13.15062 -27.108484,-65.85618 11.919437,-66.62012 8.285447,-0.16218 28.097748,-6.47291 26.219175,-8.35148 -0.292775,-0.29278 -9.109541,-3.95919 -19.592813,-8.14759 -19.060496,-7.61527 -19.060496,-7.61527 -26.06711,-4.02041 C 16.509144,439.95814 -16.137158,397.19443 9.0663622,369.61777 19.541484,358.15631 16.992096,358.54026 84.75,358.21964 c 32.5875,-0.1542 59.25,-0.64625 59.25,-1.09345 0,-0.4472 -0.91595,-3.47104 -2.03544,-6.71964 C 138.8995,341.51222 137,328.92844 137,317.51743 c 0,-10.22059 0,-10.22059 -6.56459,-11.99754 -37.158628,-10.05837 -36.726002,-64.31303 0.58883,-73.84394 5.47576,-1.39861 5.47576,-1.39861 5.7662,-9.53728 C 137.08088,214 137.08088,214 123.12954,214 c -29.013009,0 -34.585948,4.231 -55.141245,41.86345 -12.761396,23.36345 -12.761396,23.36345 -8.772807,27.35204 15.5113,15.5113 11.403276,43.55348 -7.911935,54.00843 C 33.732244,346.73492 12.567351,340.055 3.7919985,322.22865 0.15721518,314.8449 -1.4805281,208.94671 1.7745328,191.77721 10.676981,144.81938 43.061085,106.70847 86.449525,92.128298 94.878022,89.296001 94.878022,89.296001 76.258279,76.398001 66.01742,69.3041 57.085578,63.162923 56.409741,62.750941 55.728213,62.33549 53.025147,63.112063 50.340473,64.494602 40.125718,69.75494 29.153006,69.743513 18.339456,64.461275 -6.2203034,52.464244 -5.5200817,15.366791 19.5,2.9761409 c 6.900758,-3.4174499 199.05466,-3.9582638 217,-0.6107428 47.60098,8.8794779 92.60095,40.1112429 115.5256,80.1793489 3.06859,5.363325 3.39446,5.620462 6.35443,5.014066 69.62705,-14.264209 138.1064,31.650737 151.71908,101.726647 3.37504,17.37413 2.83493,124.15583 -0.66621,131.71454 -8.3558,18.03953 -29.02924,25.30325 -46.99679,16.51254 -19.9947,-9.78249 -24.54206,-36.61393 -9.16581,-54.08227 3.1822,-3.61518 3.8644,-4.99989 3.0957,-6.28365 C 455.82372,276.24098 450.00841,265.6 443.44308,253.5 424.6877,218.93352 419.18664,214.75058 391.70813,214.16139 c -15.79188,-0.3386 -15.79188,-0.3386 -15.5,7.89207 0.29187,8.23068 0.29187,8.23068 4.79187,9.39496 38.37045,9.92753 38.29402,64.903 -0.10365,74.55776 -4.60366,1.15755 -4.60366,1.15755 -5.20863,14.32568 -0.57844,12.59051 -2.57939,23.59145 -6.07294,33.38809 -1.50486,4.21995 -1.50486,4.21995 58.19018,4.5 66.72425,0.31303 66.27223,0.24448 76.23262,11.56009 24.65824,28.01323 -8.42788,70.01413 -41.55246,52.74842 -6.34288,-3.30613 -6.34288,-3.30613 -25.164,4.15069 -10.35162,4.10125 -19.17858,7.80619 -19.61548,8.2332 -2.1552,2.10639 17.50381,8.51636 26.22953,8.55234 38.21927,0.15757 48.2604,53.30889 12.56483,66.51021 -15.63875,5.78369 -36.42707,-1.89306 -42.54324,-15.71046 -0.90776,-2.05076 -2.32777,-3.39088 -3.9382,-3.71662 C 403.52996,489.23539 259.6498,470 256.32145,470 252.77898,470 108.44282,489.37672 103,490.58297 c -1.60157,0.35494 -3.691472,2.41613 -5.815434,5.73554 -8.405327,13.13617 -25.358523,18.9659 -39.916706,13.72623 z M 199.30415,377.80088 c 17.23654,-10.29838 16.45652,-9.43381 12.33896,-13.67629 -8.74498,-9.01029 -14.81261,-23.83144 -15.02285,-36.69573 -0.20572,-12.58747 -2.6065,-11.87391 41.09759,-12.21504 26.89903,-0.20996 37.06001,-0.60948 38.14969,-1.5 C 281.18472,309.36844 299,284.87052 299,281.90422 299,276.59867 292.29106,273 282.4,273 c -9.4,0 -9.4,0 -9.4,-9 0,-9 0,-9 9.70239,-9 C 296.69813,255 299,252.78308 299,239.30383 299,230 299,230 308,230 c 9,0 9,0 9,9.94098 0,5.46754 0.43549,10.21013 0.96775,10.53909 1.36538,0.84385 13.44656,-24.24526 16.48283,-34.23007 C 335.13478,214 335.13478,214 244.56739,214 154,214 154,214 154.00855,263.25 c 0.0137,78.70317 2.43617,90.43334 24.25651,117.45448 5.81447,7.20033 3.62144,7.50299 21.03909,-2.9036 z M 195.98935,289.25 C 195.97421,275.3875 193.64611,273 180.14364,273 171,273 171,273 171,264 c 0,-9 0,-9 9.42308,-9 C 193.96335,255 196,252.96335 196,239.42308 196,230 196,230 205,230 c 9,0 9,0 9,9.5141 0,13.47728 2.03597,15.41385 16.25,15.45659 C 240,255 240,255 240,264 c 0,9 0,9 -9.56715,9 C 216.7265,273 214,275.76085 214,289.63988 214,299 214,299 205,299 c -9,0 -9,0 -9.01065,-9.75 z"/><path style="fill:#fab83b" id="path24" d="m 59.286039,510.6142 c -38.957915,-12.7758 -27.679285,-72.73723 12.642178,-67.21056 4.767667,0.65348 25.15362,-6.76258 23.350102,-8.49437 -0.428076,-0.41105 -9.403351,-4.18997 -19.945056,-8.3976 -19.166738,-7.65025 -19.166738,-7.65025 -23.025348,-5.09674 -33.291083,22.031 -70.951152,-27.01508 -41.307537,-53.79631 10.47059,-9.45955 7.528414,-9.08483 73.856396,-9.40632 59.356776,-0.28769 59.356776,-0.28769 58.703476,-2.5 -4.58425,-15.52381 -5.77723,-22.14207 -6.28697,-34.87804 -0.54695,-13.66574 -0.54695,-13.66574 -5.03267,-14.79526 C 93.40069,296.259 93.224066,241.50167 132,231.44569 c 4.5,-1.16701 4.5,-1.16701 4.5,-9.55635 0,-8.38934 0,-8.38934 -7.99167,-8.68575 -31.628426,-1.17312 -39.991809,4.66405 -60.461614,42.1988 C 55.0114,279.30478 55.0114,279.30478 59.537401,284.14344 80.105508,306.13241 64.361264,341.43365 34.075633,341.233 18.519643,341.12994 5.3727176,330.63427 1.4545894,315.19044 -1.1928243,304.7553 -0.15133453,200.13751 2.7257717,187.5 13.144625,141.73582 44.322874,106.51444 87.154997,92.122182 95.323361,89.377484 95.323361,89.377484 76.411681,76.357898 66.010256,69.197126 56.954372,63.021062 56.287493,62.633312 c -0.666879,-0.387751 -3.591879,0.543786 -6.5,2.070082 C 42.31032,68.627708 27.147059,68.802585 19.52608,65.052396 -6.2508281,52.3679 -5.9676242,15.343145 20,3.0943266 27.177239,-0.29114654 206.59697,-1.6086755 229.5,1.5559098 279.00902,8.3967291 321.64569,35.877772 349.39412,78.83247 c 5.77518,8.939999 6.1565,9.309195 9.0673,8.779028 72.08959,-13.13027 139.64805,32.996272 151.99063,103.773872 2.76466,15.85375 2.26277,120.62909 -0.61468,128.31974 -8.08495,21.60898 -36.44491,28.30616 -54.4831,12.86614 -14.0987,-12.06797 -14.87358,-36.05194 -1.59381,-49.33171 3.96453,-3.96453 3.96453,-3.96453 -8.80017,-27.35203 C 424.58942,218.56394 419.3884,214.51462 390.25,213.29216 376,212.69432 376,212.69432 376,221.71935 c 0,9.02503 0,9.02503 4.18885,9.69486 39.70824,6.3496 38.67897,66.31741 -1.28701,74.98425 -2.5902,0.5617 -2.60009,0.60255 -3.22876,13.33248 -0.60984,12.34893 -2.9049,25.2509 -6.04606,33.98878 -1.51694,4.21973 -1.51694,4.21973 57.67802,4.5 C 486.5,358.5 486.5,358.5 492.1965,361.17018 c 32.95713,15.44836 22.07284,65.44889 -14.1965,65.21621 -7.64474,-0.049 -15.17199,-2.42209 -19.17563,-6.04533 -1.6123,-1.45912 -3.35791,-0.93799 -22.37986,6.68116 -20.63115,8.26372 -20.63115,8.26372 -10.40478,12.63754 8.89512,3.80445 10.83618,4.29293 14.9107,3.75243 30.69206,-4.07145 49.45587,34.74889 28.03067,57.99249 -15.91928,17.27037 -49.16218,11.55208 -56.23745,-9.67372 -0.21348,-0.64046 -32.35584,-5.44881 -78.41866,-11.73108 -78.05689,-10.64576 -78.05689,-10.64576 -155.64287,-0.0376 -42.6723,5.83451 -77.75447,10.81734 -77.9604,11.07294 -0.20592,0.2556 -1.35553,2.09766 -2.554679,4.09347 -7.660149,12.74918 -25.526444,19.86494 -38.881002,15.48546 z M 265.44433,416.98154 c 36.31794,-3.53108 66.27395,-24.14402 82.08249,-56.48154 10.08508,-20.62976 9.78791,-18.10454 10.20861,-86.75 C 358.10161,214 358.10161,214 256.05081,214 154,214 154,214 154,266.27623 c 0,64.91849 0.86693,72.97538 9.93421,92.32445 15.94267,34.02076 46.66737,54.99248 86.06579,58.74581 1.925,0.18339 3.95,0.39384 4.5,0.46767 0.55,0.0738 5.47495,-0.30085 10.94433,-0.83262 z M 240,381.72077 C 216.42888,374.50881 200.51816,356.01263 196.88764,331.60271 194.32378,314.36455 192.0279,315 256.87361,315 318.82506,315 316,314.45632 316,326.37879 c 0,37.31586 -39.91638,66.38233 -76,55.34198 z m -44,-92.5246 C 196,275.28632 193.76994,273 180.20239,273 171,273 171,273 171,264 c 0,-9 0,-9 9.69528,-9 C 194.55614,255 196,253.56724 196,239.81291 196,230 196,230 205,230 c 9,0 9,0 9,9.42308 0,13.47266 1.91004,15.3827 15.79121,15.79121 C 239.5,255.5 239.5,255.5 239.78893,264.25 c 0.28894,8.75 0.28894,8.75 -9.5,8.76065 C 216.24426,273.02593 214,275.27801 214,289.35636 214,299 214,299 205,299 c -9,0 -9,0 -9,-9.80383 z M 299,289.6 c 0,-13.74091 -2.86579,-16.6 -16.63893,-16.6 -9.43894,0 -9.43894,0 -9.15,-8.75 C 273.5,255.5 273.5,255.5 283.06653,255 297.26934,254.25768 299,252.58112 299,239.56456 299,230 299,230 307.5,230 c 8.5,0 8.5,0 8.5,9.56456 0,13.01656 1.73066,14.69312 15.93347,15.43544 9.56653,0.5 9.56653,0.5 9.85546,9.25 0.28894,8.75 0.28894,8.75 -9.15,8.75 C 318.86579,273 316,275.85909 316,289.6 c 0,9.4 0,9.4 -8.5,9.4 -8.5,0 -8.5,0 -8.5,-9.4 z M 137,268.5 c 0,-11.275 -0.24293,-20.5 -0.53984,-20.5 -2.03854,0 -8.79356,4.5798 -11.38811,7.72098 -7.9613,9.63859 -5.47932,24.32534 5.19169,30.72107 C 137.24789,290.62804 137,291.2883 137,268.5 Z m 245.94212,17.60289 C 396.57151,276.435 394.76371,255.81314 379.73635,249.53431 376,247.97316 376,247.97316 376,268.55397 c 0,22.82633 -0.10907,22.55061 6.94212,17.54892 z"/><path style="fill:#a2a2a1" id="path22" d="m 59.286039,510.6142 c -38.957915,-12.7758 -27.679285,-72.73723 12.642178,-67.21056 4.767667,0.65348 25.15362,-6.76258 23.350102,-8.49437 -0.428076,-0.41105 -9.403351,-4.18997 -19.945056,-8.3976 -19.166738,-7.65025 -19.166738,-7.65025 -23.025348,-5.09674 -33.291083,22.031 -70.951152,-27.01508 -41.307537,-53.79631 10.47059,-9.45955 7.528414,-9.08483 73.856396,-9.40632 59.356776,-0.28769 59.356776,-0.28769 58.703476,-2.5 -4.58425,-15.52381 -5.77723,-22.14207 -6.28697,-34.87804 -0.54695,-13.66574 -0.54695,-13.66574 -5.03267,-14.79526 C 93.40069,296.259 93.224066,241.50167 132,231.44569 c 4.5,-1.16701 4.5,-1.16701 4.5,-9.55635 0,-8.38934 0,-8.38934 -7.99167,-8.68575 -31.628426,-1.17312 -39.991809,4.66405 -60.461614,42.1988 C 55.0114,279.30478 55.0114,279.30478 59.537401,284.14344 80.105508,306.13241 64.361264,341.43365 34.075633,341.233 18.519643,341.12994 5.3727176,330.63427 1.4545894,315.19044 -1.1928243,304.7553 -0.15133453,200.13751 2.7257717,187.5 13.144625,141.73582 44.322874,106.51444 87.154997,92.122182 95.323361,89.377484 95.323361,89.377484 76.411681,76.357898 66.010256,69.197126 56.954372,63.021062 56.287493,62.633312 c -0.666879,-0.387751 -3.591879,0.543786 -6.5,2.070082 C 42.31032,68.627708 27.147059,68.802585 19.52608,65.052396 -6.2508281,52.3679 -5.9676242,15.343145 20,3.0943266 27.177239,-0.29114654 206.59697,-1.6086755 229.5,1.5559098 279.00902,8.3967291 321.64569,35.877772 349.39412,78.83247 c 5.77518,8.939999 6.1565,9.309195 9.0673,8.779028 72.08959,-13.13027 139.64805,32.996272 151.99063,103.773872 2.76466,15.85375 2.26277,120.62909 -0.61468,128.31974 -8.08495,21.60898 -36.44491,28.30616 -54.4831,12.86614 -14.0987,-12.06797 -14.87358,-36.05194 -1.59381,-49.33171 3.96453,-3.96453 3.96453,-3.96453 -8.80017,-27.35203 C 424.58942,218.56394 419.3884,214.51462 390.25,213.29216 376,212.69432 376,212.69432 376,221.71935 c 0,9.02503 0,9.02503 4.18885,9.69486 39.70824,6.3496 38.67897,66.31741 -1.28701,74.98425 -2.5902,0.5617 -2.60009,0.60255 -3.22876,13.33248 -0.60984,12.34893 -2.9049,25.2509 -6.04606,33.98878 -1.51694,4.21973 -1.51694,4.21973 57.67802,4.5 C 486.5,358.5 486.5,358.5 492.1965,361.17018 c 32.95713,15.44836 22.07284,65.44889 -14.1965,65.21621 -7.64474,-0.049 -15.17199,-2.42209 -19.17563,-6.04533 -1.6123,-1.45912 -3.35791,-0.93799 -22.37986,6.68116 -20.63115,8.26372 -20.63115,8.26372 -10.40478,12.63754 8.89512,3.80445 10.83618,4.29293 14.9107,3.75243 30.69206,-4.07145 49.45587,34.74889 28.03067,57.99249 -15.91928,17.27037 -49.16218,11.55208 -56.23745,-9.67372 -0.21348,-0.64046 -32.35584,-5.44881 -78.41866,-11.73108 -78.05689,-10.64576 -78.05689,-10.64576 -155.64287,-0.0376 -42.6723,5.83451 -77.75447,10.81734 -77.9604,11.07294 -0.20592,0.2556 -1.35553,2.09766 -2.554679,4.09347 -7.660149,12.74918 -25.526444,19.86494 -38.881002,15.48546 z m 17.332526,-18.23749 c 8.4264,-3.99859 11.344906,-16.54966 5.639772,-24.25391 -10.275357,-13.87591 -31.651655,-5.97514 -30.011677,11.09244 1.12118,11.66834 13.467767,18.33583 24.371905,13.16147 z m 376.483555,-0.63478 c 7.20096,-4.78542 9.60274,-14.19565 5.57286,-21.83465 -10.12652,-19.1957 -39.21081,-4.24804 -29.42498,15.12276 3.16669,6.26838 7.60911,8.96996 14.75,8.96996 4.25169,0 6.56948,-0.575 9.10212,-2.25807 z M 265.44433,416.98154 c 36.31794,-3.53108 66.27395,-24.14402 82.08249,-56.48154 10.08508,-20.62976 9.78791,-18.10454 10.20861,-86.75 C 358.10161,214 358.10161,214 256.05081,214 154,214 154,214 154,266.27623 c 0,64.91849 0.86693,72.97538 9.93421,92.32445 15.94267,34.02076 46.66737,54.99248 86.06579,58.74581 1.925,0.18339 3.95,0.39384 4.5,0.46767 0.55,0.0738 5.47495,-0.30085 10.94433,-0.83262 z M 240,381.72077 C 216.42888,374.50881 200.51816,356.01263 196.88764,331.60271 194.32378,314.36455 192.0279,315 256.87361,315 318.82506,315 316,314.45632 316,326.37879 c 0,37.31586 -39.91638,66.38233 -76,55.34198 z m -44,-92.5246 C 196,275.28632 193.76994,273 180.20239,273 171,273 171,273 171,264 c 0,-9 0,-9 9.69528,-9 C 194.55614,255 196,253.56724 196,239.81291 196,230 196,230 205,230 c 9,0 9,0 9,9.42308 0,13.47266 1.91004,15.3827 15.79121,15.79121 C 239.5,255.5 239.5,255.5 239.78893,264.25 c 0.28894,8.75 0.28894,8.75 -9.5,8.76065 C 216.24426,273.02593 214,275.27801 214,289.35636 214,299 214,299 205,299 c -9,0 -9,0 -9,-9.80383 z M 299,289.6 c 0,-13.74091 -2.86579,-16.6 -16.63893,-16.6 -9.43894,0 -9.43894,0 -9.15,-8.75 C 273.5,255.5 273.5,255.5 283.06653,255 297.26934,254.25768 299,252.58112 299,239.56456 299,230 299,230 307.5,230 c 8.5,0 8.5,0 8.5,9.56456 0,13.01656 1.73066,14.69312 15.93347,15.43544 9.56653,0.5 9.56653,0.5 9.85546,9.25 0.28894,8.75 0.28894,8.75 -9.15,8.75 C 318.86579,273 316,275.85909 316,289.6 c 0,9.4 0,9.4 -8.5,9.4 -8.5,0 -8.5,0 -8.5,-9.4 z M 43.791471,406.32234 C 57.417625,396.2293 51.049944,376 34.246754,376 16.860779,376 11.675868,400.31838 27.5,407.64377 c 4.149902,1.9211 12.868633,1.2139 16.291471,-1.32143 z M 486.5,406.72943 C 501.22051,398.49454 494.99835,376 478,376 c -9.88989,0 -16.43271,6.55676 -16.42428,16.45929 0.011,12.90236 13.53155,20.64342 24.92428,14.27014 z M 41.979568,321.75 c 16.183266,-8.26924 8.479261,-34.15777 -9.317909,-31.31189 -9.482161,1.51626 -15.229143,8.70524 -14.451877,18.07805 1.011254,12.19439 12.876186,18.8002 23.769786,13.23384 z m 442.318172,0.89896 c 4.37873,-1.82956 9.45821,-7.83115 10.26423,-12.12758 3.15095,-16.79602 -18.13402,-27.32615 -29.03905,-14.36624 -11.19023,13.29882 2.86977,33.13937 18.77482,26.49382 z M 137,268.5 c 0,-11.275 -0.24293,-20.5 -0.53984,-20.5 -2.03854,0 -8.79356,4.5798 -11.38811,7.72098 -7.9613,9.63859 -5.47932,24.32534 5.19169,30.72107 C 137.24789,290.62804 137,291.2883 137,268.5 Z m 245.94212,17.60289 C 396.57151,276.435 394.76371,255.81314 379.73635,249.53431 376,247.97316 376,247.97316 376,268.55397 c 0,22.82633 -0.10907,22.55061 6.94212,17.54892 z M 42.030039,48.75 C 57.768338,40.799255 52.156198,17.689522 34.464756,17.597593 16.9795,17.506735 11.513566,41.87933 27.401069,49.094566 32.832688,51.56131 36.642762,51.471569 42.030039,48.75 Z"/><path style="fill:#4bb5e3" id="path20" d="m 62.931614,511.00182 c -40.90944,-7.02121 -34.771079,-67.00914 6.855899,-67.00016 7.863739,0.002 28.562801,-7.1028 26.490806,-9.09239 -0.428076,-0.41105 -9.464127,-4.21428 -20.080115,-8.45164 -19.301796,-7.70428 -19.301796,-7.70428 -25.785045,-4.41355 -34.522313,17.52261 -66.774016,-26.44793 -39.444741,-53.7772 9.923926,-9.92393 12.477814,-10.25402 79.388571,-10.26109 51.859981,-0.005 54.816381,-0.1014 54.113721,-1.75579 -3.82487,-9.00556 -7.45574,-29.37213 -7.46481,-41.87219 C 137,306.25562 137,306.25562 132.81115,305.58579 93.924706,299.3676 94.283537,238.77416 133.25,231.47944 137,230.77742 137,230.77742 137,221.88871 137,213 137,213 124.2101,213 c -29.612375,0 -36.279736,4.98866 -56.562723,42.3214 -12.852622,23.65646 -12.852622,23.65646 -8.303752,28.7159 12.575127,13.98657 11.759919,35.31663 -1.82846,47.84196 C 40.017499,348.00804 11.292219,341.43339 3.0537521,319.41412 0.32345489,312.11675 -0.14036426,206.80131 2.4913313,191.71005 10.491328,145.83467 41.944037,108.54645 85.722979,93.036201 95.945957,89.414346 95.945957,89.414346 75.562727,75.333188 55.179496,61.25203 55.179496,61.25203 48.876642,64.376015 16.325747,80.509739 -14.995744,38.997945 9.0859872,11.639653 19.302438,0.03315218 14.487414,0.5 123.97931,0.5 229.32471,0.5 228.4654,0.46234465 249.5,6.0003492 292.05722,17.204844 330.83475,46.506998 351.95389,83.419409 c 2.32891,4.070515 3.69943,5.519197 4.89085,5.169788 10.21922,-2.996999 35.384,-3.582103 49.24548,-1.145002 55.28534,9.720166 97.59686,54.313055 104.89979,110.555805 2.54314,19.58576 0.85607,116.76184 -2.13797,123.14796 -13.61427,29.03852 -55.48426,24.86945 -63.4747,-6.32029 -2.80118,-10.93407 0.57028,-23.06032 8.73656,-31.42315 3.99922,-4.09549 3.99922,-4.09549 -9.30734,-28.44178 C 424.74255,218.25271 419.05343,213.81102 391.25,213.14926 376,212.7863 376,212.7863 376,221.78186 c 0,8.99556 0,8.99556 3.25,9.60679 39.18076,7.36882 39.72392,67.72382 0.66792,74.21767 -3.58207,0.59559 -3.58207,0.59559 -4.69836,15.24464 -0.96686,12.68813 -3.97198,28.51196 -6.71283,35.34725 -0.63519,1.58407 3.27367,1.7185 58.15615,2 66.90599,0.34318 65.80935,0.18475 75.89216,10.96409 25.8373,27.62216 -5.90369,69.70722 -39.94546,52.96328 -6.86046,-3.37441 -6.86046,-3.37441 -26.72775,4.5 -10.927,4.33093 -19.87056,8.15685 -19.87456,8.50204 -0.0283,2.44043 19.56469,8.87238 27.02698,8.87238 31.52813,0 46.92211,36.04364 24.82956,58.13619 -15.55359,15.55359 -44.19797,11.00709 -53.49596,-8.49099 -1.60926,-3.37466 -1.60926,-3.37466 -21.73856,-6.09293 C 381.55818,486.05723 364.85,483.76783 355.5,482.46472 248.72681,467.58378 264.11496,467.83723 178.46292,479.54886 c -42.87961,5.86314 -77.97927,10.72571 -77.99925,10.8057 -3.037198,12.1595 -22.999807,23.1414 -37.532056,20.64726 z m 13.686951,-18.62511 c 8.4264,-3.99859 11.344906,-16.54966 5.639772,-24.25391 -10.275357,-13.87591 -31.651655,-5.97514 -30.011677,11.09244 1.12118,11.66834 13.467767,18.33583 24.371905,13.16147 z m 376.483555,-0.63478 c 7.20096,-4.78542 9.60274,-14.19565 5.57286,-21.83465 -10.12652,-19.1957 -39.21081,-4.24804 -29.42498,15.12276 3.16669,6.26838 7.60911,8.96996 14.75,8.96996 4.25169,0 6.56948,-0.575 9.10212,-2.25807 z M 273.46591,416.47798 c 40.11652,-6.99573 71.40274,-35.90143 82.23515,-75.97798 2.70293,-10 2.70293,-10 3.0655,-68.75 C 359.12912,213 359.12912,213 256.56456,213 154,213 154,213 154,268.86901 c 0,61.34958 0.32272,65.73748 5.97363,81.22136 17.0863,46.81756 64.99888,74.84415 113.49228,66.38761 z M 247.24732,382.95097 C 218.75249,377.87719 197.09071,353.40643 197.01478,326.20455 196.98467,315.41809 193.60147,316 256.34376,316 c 65.81937,0 62.66737,-1.08216 58.2541,20 -6.42679,30.70073 -37.39015,52.2857 -67.35054,46.95097 z M 197,289.50711 C 197,275.58269 194.42363,273 180.53333,273 171,273 171,273 171,264.5 c 0,-8.5 0,-8.5 9.4,-8.5 13.73037,0 16.6,-2.86963 16.6,-16.6 0,-9.4 0,-9.4 8.5,-9.4 8.5,0 8.5,0 8.5,9.80383 C 214,253.71368 216.23006,256 229.79761,256 239,256 239,256 239,264.5 c 0,8.5 0,8.5 -9.30383,8.5 -13.27614,0 -15.48327,2.22103 -15.90541,16.00555 C 213.5,298.5 213.5,298.5 205.25,298.79044 197,299.08088 197,299.08088 197,289.50711 Z m 102,-0.31094 C 299,275.15084 296.83569,273 282.70239,273 273,273 273,273 273,264.5 c 0,-8.5 0,-8.5 9.64364,-8.5 14.06778,0 16.33042,-2.2494 16.34571,-16.25 C 299,230 299,230 307.5,230 c 8.5,0 8.5,0 8.5,9.53333 C 316,253.41314 318.58686,256 332.46667,256 342,256 342,256 342,264.5 c 0,8.5 0,8.5 -9.80383,8.5 C 318.15084,273 316,275.16431 316,289.29761 316,299 316,299 307.5,299 299,299 299,299 299,289.19617 Z M 43.791471,406.32234 C 57.417625,396.2293 51.049944,376 34.246754,376 16.860779,376 11.675868,400.31838 27.5,407.64377 c 4.149902,1.9211 12.868633,1.2139 16.291471,-1.32143 z M 486.5,406.72943 C 501.22051,398.49454 494.99835,376 478,376 c -9.88989,0 -16.43271,6.55676 -16.42428,16.45929 0.011,12.90236 13.53155,20.64342 24.92428,14.27014 z M 41.979568,321.75 c 16.183266,-8.26924 8.479261,-34.15777 -9.317909,-31.31189 -9.482161,1.51626 -15.229143,8.70524 -14.451877,18.07805 1.011254,12.19439 12.876186,18.8002 23.769786,13.23384 z m 442.318172,0.89896 c 4.37873,-1.82956 9.45821,-7.83115 10.26423,-12.12758 3.15095,-16.79602 -18.13402,-27.32615 -29.03905,-14.36624 -11.19023,13.29882 2.86977,33.13937 18.77482,26.49382 z M 136.46043,248.12709 c -0.31957,-0.31957 -2.67956,0.5336 -5.24441,1.89594 -15.41059,8.18541 -14.64813,30.95419 1.2754,38.08638 4.00858,1.79546 4.00858,1.79546 4.27931,-18.80291 0.14891,-11.3291 0.009,-20.85984 -0.3103,-21.17941 z m 250.00031,35.45865 c 10.05311,-10.06827 8.02913,-25.80566 -4.28665,-33.33062 C 375.83486,246.38184 376,245.88187 376,268.94798 c 0,23.46991 0.68492,24.42832 10.46074,14.63776 z M 42.030039,48.75 C 57.768338,40.799255 52.156198,17.689522 34.464756,17.597593 16.9795,17.506735 11.513566,41.87933 27.401069,49.094566 32.832688,51.56131 36.642762,51.471569 42.030039,48.75 Z"/><path style="fill:#e64d4d" id="path18" d="m 62.931614,511.00182 c -40.90944,-7.02121 -34.771079,-67.00914 6.855899,-67.00016 7.863739,0.002 28.562801,-7.1028 26.490806,-9.09239 -0.428076,-0.41105 -9.464127,-4.21428 -20.080115,-8.45164 -19.301796,-7.70428 -19.301796,-7.70428 -25.785045,-4.41355 -34.522313,17.52261 -66.774016,-26.44793 -39.444741,-53.7772 9.923926,-9.92393 12.477814,-10.25402 79.388571,-10.26109 51.859981,-0.005 54.816381,-0.1014 54.113721,-1.75579 -3.82487,-9.00556 -7.45574,-29.37213 -7.46481,-41.87219 C 137,306.25562 137,306.25562 132.81115,305.58579 93.924706,299.3676 94.283537,238.77416 133.25,231.47944 137,230.77742 137,230.77742 137,221.88871 137,213 137,213 124.2101,213 c -29.612375,0 -36.279736,4.98866 -56.562723,42.3214 -12.852622,23.65646 -12.852622,23.65646 -8.303752,28.7159 12.575127,13.98657 11.759919,35.31663 -1.82846,47.84196 C 40.017499,348.00804 11.292219,341.43339 3.0537521,319.41412 0.32345489,312.11675 -0.14036426,206.80131 2.4913313,191.71005 10.491328,145.83467 41.944037,108.54645 85.722979,93.036201 95.945957,89.414346 95.945957,89.414346 75.562727,75.333188 55.179496,61.25203 55.179496,61.25203 48.876642,64.376015 16.325747,80.509739 -14.995744,38.997945 9.0859872,11.639653 19.302438,0.03315218 14.487414,0.5 123.97931,0.5 229.32471,0.5 228.4654,0.46234465 249.5,6.0003492 292.05722,17.204844 330.83475,46.506998 351.95389,83.419409 c 2.32891,4.070515 3.69943,5.519197 4.89085,5.169788 10.21922,-2.996999 35.384,-3.582103 49.24548,-1.145002 55.28534,9.720166 97.59686,54.313055 104.89979,110.555805 2.54314,19.58576 0.85607,116.76184 -2.13797,123.14796 -13.61427,29.03852 -55.48426,24.86945 -63.4747,-6.32029 -2.80118,-10.93407 0.57028,-23.06032 8.73656,-31.42315 3.99922,-4.09549 3.99922,-4.09549 -9.30734,-28.44178 C 424.74255,218.25271 419.05343,213.81102 391.25,213.14926 376,212.7863 376,212.7863 376,221.78186 c 0,8.99556 0,8.99556 3.25,9.60679 39.18076,7.36882 39.72392,67.72382 0.66792,74.21767 -3.58207,0.59559 -3.58207,0.59559 -4.69836,15.24464 -0.96686,12.68813 -3.97198,28.51196 -6.71283,35.34725 -0.63519,1.58407 3.27367,1.7185 58.15615,2 66.90599,0.34318 65.80935,0.18475 75.89216,10.96409 25.8373,27.62216 -5.90369,69.70722 -39.94546,52.96328 -6.86046,-3.37441 -6.86046,-3.37441 -26.72775,4.5 -10.927,4.33093 -19.87056,8.15685 -19.87456,8.50204 -0.0283,2.44043 19.56469,8.87238 27.02698,8.87238 31.52813,0 46.92211,36.04364 24.82956,58.13619 -15.55359,15.55359 -44.19797,11.00709 -53.49596,-8.49099 -1.60926,-3.37466 -1.60926,-3.37466 -21.73856,-6.09293 C 381.55818,486.05723 364.85,483.76783 355.5,482.46472 248.72681,467.58378 264.11496,467.83723 178.46292,479.54886 c -42.87961,5.86314 -77.97927,10.72571 -77.99925,10.8057 -3.037198,12.1595 -22.999807,23.1414 -37.532056,20.64726 z m 13.686951,-18.62511 c 8.4264,-3.99859 11.344906,-16.54966 5.639772,-24.25391 -10.275357,-13.87591 -31.651655,-5.97514 -30.011677,11.09244 1.12118,11.66834 13.467767,18.33583 24.371905,13.16147 z m 376.483555,-0.63478 c 7.20096,-4.78542 9.60274,-14.19565 5.57286,-21.83465 -10.12652,-19.1957 -39.21081,-4.24804 -29.42498,15.12276 3.16669,6.26838 7.60911,8.96996 14.75,8.96996 4.25169,0 6.56948,-0.575 9.10212,-2.25807 z M 273.46591,416.47798 c 40.11652,-6.99573 71.40274,-35.90143 82.23515,-75.97798 2.70293,-10 2.70293,-10 3.0655,-68.75 C 359.12912,213 359.12912,213 256.56456,213 154,213 154,213 154,268.86901 c 0,61.34958 0.32272,65.73748 5.97363,81.22136 17.0863,46.81756 64.99888,74.84415 113.49228,66.38761 z M 247.24732,382.95097 C 218.75249,377.87719 197.09071,353.40643 197.01478,326.20455 196.98467,315.41809 193.60147,316 256.34376,316 c 65.81937,0 62.66737,-1.08216 58.2541,20 -6.42679,30.70073 -37.39015,52.2857 -67.35054,46.95097 z M 197,289.50711 C 197,275.58269 194.42363,273 180.53333,273 171,273 171,273 171,264.5 c 0,-8.5 0,-8.5 9.4,-8.5 13.73037,0 16.6,-2.86963 16.6,-16.6 0,-9.4 0,-9.4 8.5,-9.4 8.5,0 8.5,0 8.5,9.80383 C 214,253.71368 216.23006,256 229.79761,256 239,256 239,256 239,264.5 c 0,8.5 0,8.5 -9.30383,8.5 -13.27614,0 -15.48327,2.22103 -15.90541,16.00555 C 213.5,298.5 213.5,298.5 205.25,298.79044 197,299.08088 197,299.08088 197,289.50711 Z m 102,-0.31094 C 299,275.15084 296.83569,273 282.70239,273 273,273 273,273 273,264.5 c 0,-8.5 0,-8.5 9.64364,-8.5 14.06778,0 16.33042,-2.2494 16.34571,-16.25 C 299,230 299,230 307.5,230 c 8.5,0 8.5,0 8.5,9.53333 C 316,253.41314 318.58686,256 332.46667,256 342,256 342,256 342,264.5 c 0,8.5 0,8.5 -9.80383,8.5 C 318.15084,273 316,275.16431 316,289.29761 316,299 316,299 307.5,299 299,299 299,299 299,289.19617 Z M 43.791471,406.32234 C 57.417625,396.2293 51.049944,376 34.246754,376 16.860779,376 11.675868,400.31838 27.5,407.64377 c 4.149902,1.9211 12.868633,1.2139 16.291471,-1.32143 z M 486.5,406.72943 C 501.22051,398.49454 494.99835,376 478,376 c -9.88989,0 -16.43271,6.55676 -16.42428,16.45929 0.011,12.90236 13.53155,20.64342 24.92428,14.27014 z M 41.979568,321.75 c 16.183266,-8.26924 8.479261,-34.15777 -9.317909,-31.31189 -9.482161,1.51626 -15.229143,8.70524 -14.451877,18.07805 1.011254,12.19439 12.876186,18.8002 23.769786,13.23384 z m 442.318172,0.89896 c 4.37873,-1.82956 9.45821,-7.83115 10.26423,-12.12758 3.15095,-16.79602 -18.13402,-27.32615 -29.03905,-14.36624 -11.19023,13.29882 2.86977,33.13937 18.77482,26.49382 z M 136.46043,248.12709 c -0.31957,-0.31957 -2.67956,0.5336 -5.24441,1.89594 -15.41059,8.18541 -14.64813,30.95419 1.2754,38.08638 4.00858,1.79546 4.00858,1.79546 4.27931,-18.80291 0.14891,-11.3291 0.009,-20.85984 -0.3103,-21.17941 z m 250.00031,35.45865 c 10.05311,-10.06827 8.02913,-25.80566 -4.28665,-33.33062 C 375.83486,246.38184 376,245.88187 376,268.94798 c 0,23.46991 0.68492,24.42832 10.46074,14.63776 z M 25.908931,274.3798 C 28.333843,273.62091 32.24117,273 34.59188,273 c 4.274018,0 4.274018,0 16.014468,-21.75 C 68.523347,218.05751 71.21342,214.3357 82.905766,206.56265 98.221068,196.38105 96.636077,196.56458 174.12874,196 c 68.62873,-0.5 68.62873,-0.5 59.95942,-19.0324 C 223.99461,155.39058 218.34777,146.51386 208,135.95748 148.02614,74.774563 45.217921,101.29247 21.32836,184.10676 c -3.62185,12.55532 -5.063107,93.82252 -1.638752,92.4032 0.995716,-0.4127 3.794411,-1.37127 6.219323,-2.13016 z m 9.39735,-70.1298 c 2.026938,-26.06333 18.416408,-53.56164 40.980452,-68.75716 5.736444,-3.86315 4.469325,-4.62762 10.969404,6.61806 2.665129,4.61089 2.665129,4.61089 -2.837392,8.40062 C 66.983741,162.51947 52,188.93312 52,207.65996 52,212 52,212 43.351783,212 c -8.648218,0 -8.648218,0 -8.045502,-7.75 z m 67.899569,-71.04295 c -3.18921,-9.90218 -3.301829,-9.65773 5.32257,-11.5528 10.64572,-2.33923 10.23899,-2.49155 10.93667,4.09575 0.33495,3.1625 0.79147,6.91448 1.0145,8.33773 0.38586,2.46236 0.095,2.64496 -6.00413,3.76876 -3.5253,0.64956 -7.00682,1.41018 -7.7367,1.69026 -0.91413,0.35079 -2.01343,-1.62188 -3.53291,-6.3397 z M 494.99598,240.75 c -0.003,-27.21105 -0.37306,-38.52533 -1.48401,-45.37502 -9.20623,-56.76195 -63.0887,-98.442196 -119.42119,-92.37707 -12.82486,1.3808 -11.85045,-0.0973 -7.73328,11.73101 C 373.24557,134.51784 376,153.19313 376,180.10595 376,196 376,196 388.75,196.01736 c 36.38593,0.0496 47.64663,8.24774 71.60429,52.13046 13.29502,24.35218 13.29502,24.35218 19.72037,24.99626 3.53394,0.35424 8.00034,1.33003 9.92534,2.16842 1.925,0.8384 3.8375,1.56106 4.25,1.60593 0.4125,0.0449 0.74819,-16.23093 0.74598,-36.16843 z m -34.45873,-35.5 c -2.29663,-22.28168 -14.29812,-41.7742 -34.94082,-56.75 -4.54133,-3.29463 3.92108,-17.30793 8.73541,-14.46538 20.65967,12.19823 37.67693,37.94225 42.2036,63.84637 C 479.10679,212.59563 479.39868,212 469.6165,212 c -8.38351,0 -8.38351,0 -9.07925,-6.75 z m -61.38296,-67.17088 c -7.34571,-1.51213 -7.34571,-1.51213 -6.761,-5.04562 0.32158,-1.94343 0.59654,-5.1085 0.61102,-7.0335 0.046,-6.11975 0.72029,-6.44797 9.54789,-4.64777 10.0818,2.05598 10.11642,2.10398 7.43515,10.30888 -2.80817,8.59324 -2.15266,8.20488 -10.83306,6.41801 z M 42.030039,48.75 C 57.768338,40.799255 52.156198,17.689522 34.464756,17.597593 16.9795,17.506735 11.513566,41.87933 27.401069,49.094566 32.832688,51.56131 36.642762,51.471569 42.030039,48.75 Z"/><path style="fill:#020202" id="path16" d="m 62.931614,511.00182 c -40.90944,-7.02121 -34.771079,-67.00914 6.855899,-67.00016 7.863739,0.002 28.562801,-7.1028 26.490806,-9.09239 -0.428076,-0.41105 -9.464127,-4.21428 -20.080115,-8.45164 -19.301796,-7.70428 -19.301796,-7.70428 -25.785045,-4.41355 -34.522313,17.52261 -66.774016,-26.44793 -39.444741,-53.7772 9.923926,-9.92393 12.477814,-10.25402 79.388571,-10.26109 51.859981,-0.005 54.816381,-0.1014 54.113721,-1.75579 -3.82487,-9.00556 -7.45574,-29.37213 -7.46481,-41.87219 C 137,306.25562 137,306.25562 132.81115,305.58579 93.924706,299.3676 94.283537,238.77416 133.25,231.47944 137,230.77742 137,230.77742 137,221.88871 137,213 137,213 124.2101,213 c -29.612375,0 -36.279736,4.98866 -56.562723,42.3214 -12.852622,23.65646 -12.852622,23.65646 -8.303752,28.7159 12.575127,13.98657 11.759919,35.31663 -1.82846,47.84196 C 40.017499,348.00804 11.292219,341.43339 3.0537521,319.41412 0.32345489,312.11675 -0.14036426,206.80131 2.4913313,191.71005 10.491328,145.83467 41.944037,108.54645 85.722979,93.036201 95.945957,89.414346 95.945957,89.414346 75.562727,75.333188 55.179496,61.25203 55.179496,61.25203 48.876642,64.376015 16.325747,80.509739 -14.995744,38.997945 9.0859872,11.639653 19.302438,0.03315218 14.487414,0.5 123.97931,0.5 229.32471,0.5 228.4654,0.46234465 249.5,6.0003492 292.05722,17.204844 330.83475,46.506998 351.95389,83.419409 c 2.32891,4.070515 3.69943,5.519197 4.89085,5.169788 10.21922,-2.996999 35.384,-3.582103 49.24548,-1.145002 55.28534,9.720166 97.59686,54.313055 104.89979,110.555805 2.54314,19.58576 0.85607,116.76184 -2.13797,123.14796 -13.61427,29.03852 -55.48426,24.86945 -63.4747,-6.32029 -2.80118,-10.93407 0.57028,-23.06032 8.73656,-31.42315 3.99922,-4.09549 3.99922,-4.09549 -9.30734,-28.44178 C 424.74255,218.25271 419.05343,213.81102 391.25,213.14926 376,212.7863 376,212.7863 376,221.78186 c 0,8.99556 0,8.99556 3.25,9.60679 39.18076,7.36882 39.72392,67.72382 0.66792,74.21767 -3.58207,0.59559 -3.58207,0.59559 -4.69836,15.24464 -0.96686,12.68813 -3.97198,28.51196 -6.71283,35.34725 -0.63519,1.58407 3.27367,1.7185 58.15615,2 66.90599,0.34318 65.80935,0.18475 75.89216,10.96409 25.8373,27.62216 -5.90369,69.70722 -39.94546,52.96328 -6.86046,-3.37441 -6.86046,-3.37441 -26.72775,4.5 -10.927,4.33093 -19.87056,8.15685 -19.87456,8.50204 -0.0283,2.44043 19.56469,8.87238 27.02698,8.87238 31.52813,0 46.92211,36.04364 24.82956,58.13619 -15.55359,15.55359 -44.19797,11.00709 -53.49596,-8.49099 -1.60926,-3.37466 -1.60926,-3.37466 -21.73856,-6.09293 C 381.55818,486.05723 364.85,483.76783 355.5,482.46472 248.72681,467.58378 264.11496,467.83723 178.46292,479.54886 c -42.87961,5.86314 -77.97927,10.72571 -77.99925,10.8057 -3.037198,12.1595 -22.999807,23.1414 -37.532056,20.64726 z m 12.646985,-17.89815 c 9.917003,-4.50408 13.123067,-15.91168 7.050762,-25.08756 -4.649435,-7.02577 -15.848627,-9.36463 -22.707681,-4.74231 -17.455196,11.76305 -3.423819,38.49591 15.656919,29.82987 z m 374.962771,0.0167 C 467.56456,485.38777 462.59795,461 444,461 c -18.59795,0 -23.56456,24.38777 -6.54137,32.12034 2.22275,1.00965 5.16637,1.83574 6.54137,1.83574 1.375,0 4.31862,-0.82609 6.54137,-1.83574 z M 182.43016,462.00923 c 73.93016,-10.06331 73.93016,-10.06331 147.5,-0.0531 90.52235,12.31684 80.01202,11.50122 81.5689,6.3299 0.69776,-2.31768 2.45831,-6.24396 3.91234,-8.72507 2.64369,-4.51111 2.64369,-4.51111 -0.63386,-5.88747 -31.2628,-13.12835 -33.12834,-14.52061 -29.53992,-22.04561 1.52835,-3.20498 3.0757,-3.95852 31.21994,-15.20367 29.61188,-11.83156 29.61188,-11.83156 28.82716,-14.87789 -1.38224,-5.36592 -0.77287,-17.76763 1.04398,-21.24667 0.91921,-1.76019 1.6713,-3.67269 1.6713,-4.25 C 448,375.33271 434.07956,375 404.08324,375 c -43.91675,0 -43.91675,0 -49.53642,8.01987 C 306.09319,452.16836 202.05591,451.4992 157.11432,381.75 152.76508,375 152.76508,375 108.47862,375 c -44.286472,0 -44.286472,0 -42.284108,5.25 2.194102,5.75272 2.733342,12.75824 1.52412,19.80058 -0.781368,4.55058 -0.781368,4.55058 27.5,15.82994 C 125.8227,428.08623 128,429.35612 128,435 c 0,5.14129 -2.28389,6.85384 -18,13.4971 -16.331603,6.90344 -15.796949,6.43619 -12.655235,11.05964 1.402243,2.06359 3.116735,5.96507 3.809975,8.66996 1.21393,4.7365 1.37272,4.89821 4.30285,4.38192 1.67333,-0.29484 36.31098,-5.06456 76.97257,-10.59939 z m 91.03575,-45.53125 c 40.11652,-6.99573 71.40274,-35.90143 82.23515,-75.97798 2.70293,-10 2.70293,-10 3.0655,-68.75 C 359.12912,213 359.12912,213 256.56456,213 154,213 154,213 154,268.86901 c 0,61.34958 0.32272,65.73748 5.97363,81.22136 17.0863,46.81756 64.99888,74.84415 113.49228,66.38761 z M 247.24732,382.95097 C 218.75249,377.87719 197.09071,353.40643 197.01478,326.20455 196.98467,315.41809 193.60147,316 256.34376,316 c 65.81937,0 62.66737,-1.08216 58.2541,20 -6.42679,30.70073 -37.39015,52.2857 -67.35054,46.95097 z m 16.86619,-16.95625 c 15.48076,-2.88917 28.74648,-15.11585 33.35745,-30.74472 0.66382,-2.25 0.66382,-2.25 -41.01198,-2.25 -41.6758,0 -41.6758,0 -41.02106,2.75 4.75614,19.97671 27.60897,34.17638 48.67559,30.24472 z M 197,289.50711 C 197,275.58269 194.42363,273 180.53333,273 171,273 171,273 171,264.5 c 0,-8.5 0,-8.5 9.4,-8.5 13.73037,0 16.6,-2.86963 16.6,-16.6 0,-9.4 0,-9.4 8.5,-9.4 8.5,0 8.5,0 8.5,9.80383 C 214,253.71368 216.23006,256 229.79761,256 239,256 239,256 239,264.5 c 0,8.5 0,8.5 -9.56456,8.5 -13.01656,0 -14.69312,1.73066 -15.43544,15.93347 -0.5,9.56653 -0.5,9.56653 -8.75,9.85697 -8.25,0.29044 -8.25,0.29044 -8.25,-9.28333 z m 102,-0.31094 C 299,275.15084 296.83569,273 282.70239,273 273,273 273,273 273,264.5 c 0,-8.5 0,-8.5 9.64364,-8.5 14.06778,0 16.33042,-2.2494 16.34571,-16.25 C 299,230 299,230 307.5,230 c 8.5,0 8.5,0 8.5,9.53333 C 316,253.41314 318.58686,256 332.46667,256 342,256 342,256 342,264.5 c 0,8.5 0,8.5 -9.80383,8.5 C 318.15084,273 316,275.16431 316,289.29761 316,299 316,299 307.5,299 299,299 299,299 299,289.19617 Z M 43.163254,406.78809 C 61.902936,396.2558 46.611377,367.74834 27.249741,377.12115 14.458027,383.31351 14.599688,400.69811 27.5,407.83302 c 3.448991,1.90757 11.347533,1.38064 15.663254,-1.04493 z M 487.01017,406.75 c 9.96048,-6.77905 10.84734,-19.12881 1.95085,-27.16625 C 478.5452,370.17368 461,377.93188 461,391.94764 c 0,13.1624 15.47767,21.97072 26.01017,14.80236 z M 41.32881,322.63597 c 7.268597,-3.03701 11.947082,-12.43406 9.784369,-19.65255 C 45.366798,283.80371 17.769231,287.12809 17.769231,307 c 0,12.42615 12.069896,20.43667 23.559579,15.63597 z m 445.15081,-0.9228 c 11.46239,-6.49194 11.20389,-23.58324 -0.44563,-29.46317 -8.66047,-4.37125 -18.39013,-1.49916 -22.73125,6.71002 -7.98233,15.09482 8.36426,31.14256 23.17688,22.75315 z M 136.46043,248.12709 c -0.31957,-0.31957 -2.67956,0.5336 -5.24441,1.89594 -15.41059,8.18541 -14.64813,30.95419 1.2754,38.08638 4.00858,1.79546 4.00858,1.79546 4.27931,-18.80291 0.14891,-11.3291 0.009,-20.85984 -0.3103,-21.17941 z m 250.00031,35.45865 c 10.05311,-10.06827 8.02913,-25.80566 -4.28665,-33.33062 C 375.83486,246.38184 376,245.88187 376,268.94798 c 0,23.46991 0.68492,24.42832 10.46074,14.63776 z M 25.908931,274.3798 C 28.333843,273.62091 32.24117,273 34.59188,273 c 4.274018,0 4.274018,0 16.014468,-21.75 C 68.523347,218.05751 71.21342,214.3357 82.905766,206.56265 98.221068,196.38105 96.636077,196.56458 174.12874,196 c 68.62873,-0.5 68.62873,-0.5 59.95942,-19.0324 C 223.99461,155.39058 218.34777,146.51386 208,135.95748 148.02614,74.774563 45.217921,101.29247 21.32836,184.10676 c -3.62185,12.55532 -5.063107,93.82252 -1.638752,92.4032 0.995716,-0.4127 3.794411,-1.37127 6.219323,-2.13016 z m 9.39735,-70.1298 c 2.026938,-26.06333 18.416408,-53.56164 40.980452,-68.75716 5.736444,-3.86315 4.469325,-4.62762 10.969404,6.61806 2.665129,4.61089 2.665129,4.61089 -2.837392,8.40062 C 66.983741,162.51947 52,188.93312 52,207.65996 52,212 52,212 43.351783,212 c -8.648218,0 -8.648218,0 -8.045502,-7.75 z m 67.899569,-71.04295 c -3.18921,-9.90218 -3.301829,-9.65773 5.32257,-11.5528 10.64572,-2.33923 10.23899,-2.49155 10.93667,4.09575 0.33495,3.1625 0.79147,6.91448 1.0145,8.33773 0.38586,2.46236 0.095,2.64496 -6.00413,3.76876 -3.5253,0.64956 -7.00682,1.41018 -7.7367,1.69026 -0.91413,0.35079 -2.01343,-1.62188 -3.53291,-6.3397 z M 494.99598,240.75 c -0.003,-27.21105 -0.37306,-38.52533 -1.48401,-45.37502 -9.20623,-56.76195 -63.0887,-98.442196 -119.42119,-92.37707 -12.82486,1.3808 -11.85045,-0.0973 -7.73328,11.73101 C 373.24557,134.51784 376,153.19313 376,180.10595 376,196 376,196 388.75,196.01736 c 36.38593,0.0496 47.64663,8.24774 71.60429,52.13046 13.29502,24.35218 13.29502,24.35218 19.72037,24.99626 3.53394,0.35424 8.00034,1.33003 9.92534,2.16842 1.925,0.8384 3.8375,1.56106 4.25,1.60593 0.4125,0.0449 0.74819,-16.23093 0.74598,-36.16843 z m -34.45873,-35.5 c -2.29663,-22.28168 -14.29812,-41.7742 -34.94082,-56.75 -4.54133,-3.29463 3.92108,-17.30793 8.73541,-14.46538 20.65967,12.19823 37.67693,37.94225 42.2036,63.84637 C 479.10679,212.59563 479.39868,212 469.6165,212 c -8.38351,0 -8.38351,0 -9.07925,-6.75 z m -61.38296,-67.17088 c -7.34571,-1.51213 -7.34571,-1.51213 -6.761,-5.04562 0.32158,-1.94343 0.59654,-5.1085 0.61102,-7.0335 0.046,-6.11975 0.72029,-6.44797 9.54789,-4.64777 10.0818,2.05598 10.11642,2.10398 7.43515,10.30888 -2.80817,8.59324 -2.15266,8.20488 -10.83306,6.41801 z M 358.71463,174.75 C 356.50204,93.590571 310.89289,36.444586 235,19.741721 225.88644,17.735965 222.21671,17.63568 144.7845,17.276338 64.069004,16.901759 64.069004,16.901759 66.206494,21.70088 c 2.412314,5.416162 2.9092,17.67413 0.917446,22.633036 -1.541841,3.838748 -3.204968,2.398203 26.207073,22.699686 26.277377,18.1378 26.277377,18.1378 38.223187,18.457979 33.80326,0.906018 64.29247,14.062403 87.9458,37.949459 14.30195,14.44327 21.24126,26.10411 38.54707,64.77466 3.45293,7.71571 3.45293,7.71571 52.34991,7.75 C 359.29396,196 359.29396,196 358.71463,174.75 Z M 265.79837,67.560947 C 244.39374,54.018333 227.71328,51 174.27623,51 137,51 137,51 137,42.5 c 0,-8.5 0,-8.5 37.75,-8.497183 55.97791,0.0042 73.17889,3.212742 99.29079,18.521095 9.99456,5.859411 9.70378,5.026856 4.39285,12.577451 -5.47313,7.78118 -4.51811,7.595277 -12.63527,2.459584 z M 103,42.5 c 0,-8.5 0,-8.5 8.5,-8.5 8.5,0 8.5,0 8.5,8.5 0,8.5 0,8.5 -8.5,8.5 -8.5,0 -8.5,0 -8.5,-8.5 z M 41.930544,49.535917 C 48.925819,45.91852 52.982049,37.36077 51.068923,30.255959 45.827321,10.790138 17.769231,13.944841 17.769231,34 c 0,12.473549 13.40944,21.095926 24.161313,15.535917 z"/></g></g></svg>