<?xml version="1.0" standalone="no"?>
<!DOCTYPE svg PUBLIC "-//W3C//DTD SVG 20010904//EN"
 "http://www.w3.org/TR/2001/REC-SVG-20010904/DTD/svg10.dtd">
<svg version="1.0" xmlns="http://www.w3.org/2000/svg"
 width="700.000000pt" height="700.000000pt" viewBox="0 0 700.000000 700.000000"
 preserveAspectRatio="xMidYMid meet">
<metadata>
Created by potrace 1.14, written by Peter Selinger 2001-2017
</metadata>
<g transform="translate(0.000000,700.000000) scale(0.100000,-0.100000)"
fill="#000000" stroke="none">
<path d="M495 6990 c-218 -14 -276 -36 -360 -137 -132 -160 -156 -330 -70
-511 108 -227 367 -326 595 -227 57 25 70 28 108 26 26 -1 392 -245 460 -306
58 -53 53 -61 -66 -105 -127 -48 -264 -119 -388 -201 -154 -102 -353 -303
-457 -459 -122 -185 -216 -400 -262 -603 -28 -121 -35 -312 -35 -907 0 -700 8
-878 44 -956 50 -109 143 -192 264 -236 83 -30 225 -30 307 2 125 48 214 132
272 256 26 54 28 69 28 179 0 115 -1 123 -33 189 -18 39 -48 88 -66 110 -68
84 -67 92 15 251 266 517 390 664 599 716 75 19 394 19 412 1 19 -19 24 -181
6 -204 -7 -10 -40 -25 -72 -33 -222 -58 -369 -261 -369 -510 0 -251 153 -451
379 -497 31 -6 58 -18 63 -27 5 -9 11 -74 14 -146 7 -151 35 -327 71 -440 16
-51 22 -83 16 -89 -6 -6 -305 -13 -773 -17 -479 -5 -784 -12 -822 -19 -33 -6
-83 -22 -112 -36 -67 -32 -162 -134 -204 -220 -28 -56 -34 -80 -37 -156 -8
-157 42 -277 158 -381 88 -80 185 -117 299 -117 77 0 120 11 215 52 91 40 110
37 344 -57 254 -101 284 -114 276 -127 -22 -35 -219 -95 -360 -108 -161 -16
-252 -55 -340 -148 -89 -93 -130 -215 -121 -362 13 -231 174 -394 412 -417
161 -15 391 106 460 242 11 22 20 41 21 42 0 3 1455 204 1689 234 211 27 494
35 676 20 154 -13 404 -46 1274 -166 303 -41 568 -81 589 -88 32 -9 46 -22 69
-62 150 -259 524 -302 732 -84 65 68 112 161 128 254 31 181 -72 383 -238 472
-76 40 -120 51 -245 63 -102 10 -286 62 -339 97 l-24 16 27 14 c40 21 340 142
420 169 38 13 81 24 94 24 13 0 66 -17 116 -38 85 -35 98 -37 196 -37 101 0
108 2 183 37 100 48 180 127 228 223 33 68 34 72 34 200 0 127 -1 132 -33 197
-40 81 -142 190 -203 217 -87 39 -155 42 -924 51 -412 4 -758 11 -768 15 -12
5 -16 13 -12 24 31 80 78 347 90 520 11 144 9 140 96 165 41 12 97 35 125 51
279 163 315 603 68 839 -50 49 -142 97 -219 115 -27 7 -53 18 -57 24 -4 7 -8
51 -8 100 0 76 3 90 21 108 21 21 27 22 188 16 252 -10 348 -41 452 -147 87
-89 212 -292 374 -606 68 -133 70 -156 13 -221 -89 -104 -132 -247 -110 -374
53 -311 375 -481 660 -349 78 37 169 125 205 200 39 83 47 248 47 1023 0 746
-1 758 -66 973 -83 278 -227 519 -430 727 -246 250 -536 410 -889 489 -131 29
-467 37 -623 14 -62 -9 -117 -14 -122 -11 -6 3 -47 63 -93 133 -293 446 -723
780 -1219 946 -127 42 -287 82 -393 97 -95 14 -2460 22 -2670 9z m81 -245 c80
-33 142 -144 130 -233 -13 -93 -95 -181 -183 -198 -82 -15 -183 28 -231 100
-47 69 -44 188 4 258 60 86 175 116 280 73z m1495 -1174 c393 -84 740 -319
951 -641 62 -95 213 -400 230 -462 11 -45 11 -49 -11 -72 -14 -15 -44 -29 -75
-36 -87 -19 -345 -29 -741 -30 -506 -1 -940 -15 -1037 -34 -104 -20 -228 -86
-341 -182 -81 -69 -160 -191 -378 -592 -123 -226 -132 -238 -206 -246 -32 -4
-86 -16 -121 -28 -35 -11 -66 -18 -69 -15 -32 32 -18 951 18 1192 13 87 66
229 131 358 118 231 294 425 518 570 205 132 385 197 675 241 76 11 362 -3
456 -23z m3479 4 c207 -45 441 -151 604 -272 345 -258 570 -650 606 -1057 12
-138 13 -986 1 -1005 -8 -12 -15 -12 -48 1 -21 9 -74 22 -118 28 -98 16 -119
34 -201 183 -242 436 -317 551 -433 667 -156 156 -321 209 -643 210 -53 0
-108 4 -122 10 -37 14 -46 62 -46 245 0 331 -36 564 -132 853 -24 75 -37 127
-31 133 31 31 427 33 563 4z m-1128 -1504 c313 -38 414 -103 466 -300 19 -74
28 -793 13 -1111 -11 -241 -23 -310 -81 -456 -192 -483 -580 -801 -1085 -891
-118 -21 -333 -21 -452 1 -517 91 -931 450 -1098 950 -59 175 -60 192 -60 861
0 562 1 615 18 670 62 201 186 261 592 285 197 11 1579 4 1687 -9z m-2547
-522 c9 -73 -4 -461 -15 -480 -12 -19 -79 13 -124 60 -105 108 -109 279 -10
391 37 40 111 90 136 90 3 0 9 -27 13 -61z m3356 33 c126 -81 176 -228 119
-359 -21 -49 -134 -173 -158 -173 -5 0 -16 7 -23 17 -11 13 -14 68 -14 262 0
234 4 281 23 281 4 0 28 -13 53 -28z m-4667 -562 c43 -16 104 -79 122 -125 11
-31 15 -64 12 -109 -5 -85 -40 -138 -118 -179 -48 -25 -63 -28 -118 -24 -75 6
-128 37 -169 99 -25 37 -28 50 -28 128 0 79 3 90 29 128 39 56 111 92 187 92
32 0 69 -4 83 -10z m6102 -25 c35 -22 56 -45 77 -85 56 -106 24 -220 -80 -294
-49 -34 -129 -45 -188 -26 -50 16 -114 75 -136 125 -49 107 1 248 105 297 63
29 159 21 222 -17z m-6078 -1157 c113 -54 153 -206 84 -318 -51 -82 -184 -125
-279 -89 -75 28 -134 119 -134 208 -1 72 18 117 67 165 68 66 167 79 262 34z
m6072 -6 c26 -17 57 -47 75 -76 26 -43 30 -59 30 -121 0 -61 -4 -77 -28 -113
-32 -49 -90 -90 -144 -103 -91 -21 -204 33 -250 121 -21 38 -24 56 -21 116 3
58 8 78 30 110 71 101 203 129 308 66z m-5609 -1160 c76 -40 112 -94 117 -176
5 -83 -11 -129 -62 -180 -85 -85 -225 -89 -309 -8 -90 85 -98 220 -19 312 71
83 175 103 273 52z m5153 -9 c144 -102 129 -316 -28 -389 -120 -56 -246 -10
-302 111 -43 91 -27 176 45 245 57 56 97 70 180 66 50 -3 72 -10 105 -33z"/>
<path d="M1510 5348 c-103 -21 -120 -30 -120 -62 0 -27 45 -163 60 -181 8 -10
23 -9 73 1 107 24 137 34 137 49 0 21 -20 168 -26 187 -8 26 -23 27 -124 6z"/>
<path d="M1009 5126 c-253 -190 -440 -484 -503 -789 -20 -96 -24 -203 -9 -218
15 -15 139 -24 183 -12 29 8 35 14 37 39 16 189 72 349 182 517 60 92 191 231
266 282 30 21 56 44 59 52 11 26 -87 193 -112 193 -9 0 -56 -29 -103 -64z"/>
<path d="M5392 5347 c-6 -7 -12 -57 -14 -112 l-3 -100 88 -19 c63 -14 93 -17
105 -10 9 6 30 50 46 98 29 86 29 87 10 106 -19 19 -139 50 -193 50 -16 0 -33
-6 -39 -13z"/>
<path d="M5869 5148 c-38 -39 -59 -85 -59 -131 0 -30 7 -40 58 -78 31 -24 89
-76 129 -115 167 -170 263 -360 298 -593 8 -53 21 -101 29 -110 18 -17 117
-27 171 -17 55 11 60 33 36 167 -44 242 -128 432 -277 625 -102 132 -280 284
-332 284 -11 0 -35 -14 -53 -32z"/>
<path d="M2717 3846 c-10 -10 -16 -48 -19 -125 -9 -178 -32 -201 -215 -211
-70 -4 -118 -11 -125 -18 -18 -18 -18 -186 -1 -203 8 -8 59 -16 134 -20 178
-10 198 -30 206 -208 3 -58 10 -114 15 -123 7 -15 23 -18 93 -18 116 0 119 3
132 155 16 173 38 193 211 194 80 1 95 4 113 22 19 19 21 30 17 104 -2 50 -8
89 -16 97 -7 7 -56 15 -126 18 -173 10 -186 24 -197 203 -4 69 -12 123 -19
132 -17 21 -182 21 -203 1z"/>
<path d="M4109 3844 c-8 -9 -15 -59 -19 -132 -9 -179 -23 -193 -200 -202 -76
-3 -123 -10 -134 -19 -12 -11 -16 -33 -16 -102 0 -113 3 -115 157 -121 169 -7
184 -22 193 -201 8 -150 9 -151 125 -150 53 0 91 5 98 12 7 7 14 59 18 129 9
185 25 201 209 211 63 4 120 10 127 14 26 16 28 167 3 207 -6 10 -40 16 -128
20 -183 10 -202 28 -211 211 -5 91 -10 122 -21 129 -8 5 -54 10 -101 10 -67 0
-90 -4 -100 -16z"/>
<path d="M2855 2680 c-86 -6 -131 -20 -147 -44 -15 -22 -8 -172 12 -254 71
-295 320 -535 630 -607 95 -22 250 -19 346 5 258 66 471 250 573 493 27 67 71
247 71 296 0 70 -53 98 -214 112 -125 10 -1133 10 -1271 -1z"/>
</g>
</svg>
